<svg width="42" height="50" viewBox="0 0 42 50" fill="none" xmlns="http://www.w3.org/2000/svg">
<path d="M31.1221 18.999L27.8809 3.58889C27.8389 3.38737 27.7576 3.19612 27.6416 3.02612C27.5255 2.85612 27.377 2.71073 27.2046 2.5983C27.0322 2.48586 26.8392 2.40861 26.6369 2.37096C26.4345 2.33331 26.2267 2.33602 26.0254 2.37893L21.4541 3.36135C21.0498 3.44989 20.6967 3.69449 20.4718 4.04196C20.2468 4.38943 20.1682 4.81166 20.2529 5.21682L23.4941 20.627C23.5664 20.9786 23.7574 21.2946 24.0352 21.5218C24.313 21.7491 24.6606 21.8738 25.0195 21.875C25.1305 21.8749 25.2411 21.8631 25.3496 21.8399L29.9209 20.8574C30.3257 20.7687 30.6791 20.5236 30.9041 20.1755C31.1291 19.8275 31.2074 19.4046 31.1221 18.999ZM21.7813 4.89749V4.8887L26.3516 3.91213L26.6768 5.46194L22.1064 6.44534L21.7813 4.89749ZM22.7578 9.52444L22.4307 7.9717L27.0029 6.98928L27.3291 8.54202L22.7578 9.52444ZM29.5938 19.3301L25.0234 20.3067L24.6982 18.7569L29.2686 17.7735L29.5938 19.3213V19.3301ZM18.6563 3.12502H13.9688C13.5543 3.12502 13.1569 3.28964 12.8639 3.58267C12.5709 3.8757 12.4063 4.27312 12.4062 4.68752V20.3125C12.4062 20.7269 12.5709 21.1244 12.8639 21.4174C13.1569 21.7104 13.5543 21.875 13.9688 21.875H18.6563C19.0707 21.875 19.4681 21.7104 19.7611 21.4174C20.0541 21.1244 20.2188 20.7269 20.2188 20.3125V4.68752C20.2188 4.27312 20.0541 3.8757 19.7611 3.58267C19.4681 3.28964 19.0707 3.12502 18.6563 3.12502ZM13.9688 4.68752H18.6563V6.25002H13.9688V4.68752ZM18.6563 20.3125H13.9688V18.75H18.6563V20.3125Z" fill="white"/>
<path d="M0.720586 42.51C0.720586 41.83 0.877253 41.22 1.19059 40.68C1.51059 40.14 1.94059 39.72 2.48059 39.42C3.02725 39.1133 3.62392 38.96 4.27059 38.96C5.01059 38.96 5.66725 39.1433 6.24059 39.51C6.82059 39.87 7.24059 40.3833 7.50059 41.05H6.13059C5.95059 40.6833 5.70059 40.41 5.38059 40.23C5.06059 40.05 4.69059 39.96 4.27059 39.96C3.81059 39.96 3.40059 40.0633 3.04059 40.27C2.68059 40.4767 2.39725 40.7733 2.19059 41.16C1.99059 41.5467 1.89059 41.9967 1.89059 42.51C1.89059 43.0233 1.99059 43.4733 2.19059 43.86C2.39725 44.2467 2.68059 44.5467 3.04059 44.76C3.40059 44.9667 3.81059 45.07 4.27059 45.07C4.69059 45.07 5.06059 44.98 5.38059 44.8C5.70059 44.62 5.95059 44.3467 6.13059 43.98H7.50059C7.24059 44.6467 6.82059 45.16 6.24059 45.52C5.66725 45.88 5.01059 46.06 4.27059 46.06C3.61725 46.06 3.02059 45.91 2.48059 45.61C1.94059 45.3033 1.51059 44.88 1.19059 44.34C0.877253 43.8 0.720586 43.19 0.720586 42.51ZM11.225 46.09C10.705 46.09 10.235 45.9733 9.81496 45.74C9.39496 45.5 9.06496 45.1667 8.82496 44.74C8.58496 44.3067 8.46496 43.8067 8.46496 43.24C8.46496 42.68 8.58829 42.1833 8.83496 41.75C9.08163 41.3167 9.41829 40.9833 9.84496 40.75C10.2716 40.5167 10.7483 40.4 11.275 40.4C11.8016 40.4 12.2783 40.5167 12.705 40.75C13.1316 40.9833 13.4683 41.3167 13.715 41.75C13.9616 42.1833 14.085 42.68 14.085 43.24C14.085 43.8 13.9583 44.2967 13.705 44.73C13.4516 45.1633 13.105 45.5 12.665 45.74C12.2316 45.9733 11.7516 46.09 11.225 46.09ZM11.225 45.1C11.5183 45.1 11.7916 45.03 12.045 44.89C12.305 44.75 12.515 44.54 12.675 44.26C12.835 43.98 12.915 43.64 12.915 43.24C12.915 42.84 12.8383 42.5033 12.685 42.23C12.5316 41.95 12.3283 41.74 12.075 41.6C11.8216 41.46 11.5483 41.39 11.255 41.39C10.9616 41.39 10.6883 41.46 10.435 41.6C10.1883 41.74 9.99163 41.95 9.84496 42.23C9.69829 42.5033 9.62496 42.84 9.62496 43.24C9.62496 43.8333 9.77496 44.2933 10.075 44.62C10.3816 44.94 10.765 45.1 11.225 45.1ZM20.2019 40.49V46H19.0619V45.35C18.8819 45.5767 18.6452 45.7567 18.3519 45.89C18.0652 46.0167 17.7586 46.08 17.4319 46.08C16.9986 46.08 16.6086 45.99 16.2619 45.81C15.9219 45.63 15.6519 45.3633 15.4519 45.01C15.2586 44.6567 15.1619 44.23 15.1619 43.73V40.49H16.2919V43.56C16.2919 44.0533 16.4152 44.4333 16.6619 44.7C16.9086 44.96 17.2452 45.09 17.6719 45.09C18.0986 45.09 18.4352 44.96 18.6819 44.7C18.9352 44.4333 19.0619 44.0533 19.0619 43.56V40.49H20.2019ZM22.8461 41.29C23.0127 41.01 23.2327 40.7933 23.5061 40.64C23.7861 40.48 24.1161 40.4 24.4961 40.4V41.58H24.2061C23.7594 41.58 23.4194 41.6933 23.1861 41.92C22.9594 42.1467 22.8461 42.54 22.8461 43.1V46H21.7061V40.49H22.8461V41.29ZM27.5439 46.09C27.1106 46.09 26.7206 46.0133 26.3739 45.86C26.0339 45.7 25.7639 45.4867 25.5639 45.22C25.3639 44.9467 25.2573 44.6433 25.2439 44.31H26.4239C26.4439 44.5433 26.5539 44.74 26.7539 44.9C26.9606 45.0533 27.2173 45.13 27.5239 45.13C27.8439 45.13 28.0906 45.07 28.2639 44.95C28.4439 44.8233 28.5339 44.6633 28.5339 44.47C28.5339 44.2633 28.4339 44.11 28.2339 44.01C28.0406 43.91 27.7306 43.8 27.3039 43.68C26.8906 43.5667 26.5539 43.4567 26.2939 43.35C26.0339 43.2433 25.8073 43.08 25.6139 42.86C25.4273 42.64 25.3339 42.35 25.3339 41.99C25.3339 41.6967 25.4206 41.43 25.5939 41.19C25.7673 40.9433 26.0139 40.75 26.3339 40.61C26.6606 40.47 27.0339 40.4 27.4539 40.4C28.0806 40.4 28.5839 40.56 28.9639 40.88C29.3506 41.1933 29.5573 41.6233 29.5839 42.17H28.4439C28.4239 41.9233 28.3239 41.7267 28.1439 41.58C27.9639 41.4333 27.7206 41.36 27.4139 41.36C27.1139 41.36 26.8839 41.4167 26.7239 41.53C26.5639 41.6433 26.4839 41.7933 26.4839 41.98C26.4839 42.1267 26.5373 42.25 26.6439 42.35C26.7506 42.45 26.8806 42.53 27.0339 42.59C27.1873 42.6433 27.4139 42.7133 27.7139 42.8C28.1139 42.9067 28.4406 43.0167 28.6939 43.13C28.9539 43.2367 29.1773 43.3967 29.3639 43.61C29.5506 43.8233 29.6473 44.1067 29.6539 44.46C29.6539 44.7733 29.5673 45.0533 29.3939 45.3C29.2206 45.5467 28.9739 45.74 28.6539 45.88C28.3406 46.02 27.9706 46.09 27.5439 46.09ZM35.9357 43.11C35.9357 43.3167 35.9224 43.5033 35.8957 43.67H31.6857C31.7191 44.11 31.8824 44.4633 32.1757 44.73C32.4691 44.9967 32.8291 45.13 33.2557 45.13C33.8691 45.13 34.3024 44.8733 34.5557 44.36H35.7857C35.6191 44.8667 35.3157 45.2833 34.8757 45.61C34.4424 45.93 33.9024 46.09 33.2557 46.09C32.7291 46.09 32.2557 45.9733 31.8357 45.74C31.4224 45.5 31.0957 45.1667 30.8557 44.74C30.6224 44.3067 30.5057 43.8067 30.5057 43.24C30.5057 42.6733 30.6191 42.1767 30.8457 41.75C31.0791 41.3167 31.4024 40.9833 31.8157 40.75C32.2357 40.5167 32.7157 40.4 33.2557 40.4C33.7757 40.4 34.2391 40.5133 34.6457 40.74C35.0524 40.9667 35.3691 41.2867 35.5957 41.7C35.8224 42.1067 35.9357 42.5767 35.9357 43.11ZM34.7457 42.75C34.7391 42.33 34.5891 41.9933 34.2957 41.74C34.0024 41.4867 33.6391 41.36 33.2057 41.36C32.8124 41.36 32.4757 41.4867 32.1957 41.74C31.9157 41.9867 31.7491 42.3233 31.6957 42.75H34.7457ZM39.0576 46.09C38.6243 46.09 38.2343 46.0133 37.8876 45.86C37.5476 45.7 37.2776 45.4867 37.0776 45.22C36.8776 44.9467 36.771 44.6433 36.7576 44.31H37.9376C37.9576 44.5433 38.0676 44.74 38.2676 44.9C38.4743 45.0533 38.731 45.13 39.0376 45.13C39.3576 45.13 39.6043 45.07 39.7776 44.95C39.9576 44.8233 40.0476 44.6633 40.0476 44.47C40.0476 44.2633 39.9476 44.11 39.7476 44.01C39.5543 43.91 39.2443 43.8 38.8176 43.68C38.4043 43.5667 38.0676 43.4567 37.8076 43.35C37.5476 43.2433 37.321 43.08 37.1276 42.86C36.941 42.64 36.8476 42.35 36.8476 41.99C36.8476 41.6967 36.9343 41.43 37.1076 41.19C37.281 40.9433 37.5276 40.75 37.8476 40.61C38.1743 40.47 38.5476 40.4 38.9676 40.4C39.5943 40.4 40.0976 40.56 40.4776 40.88C40.8643 41.1933 41.071 41.6233 41.0976 42.17H39.9576C39.9376 41.9233 39.8376 41.7267 39.6576 41.58C39.4776 41.4333 39.2343 41.36 38.9276 41.36C38.6276 41.36 38.3976 41.4167 38.2376 41.53C38.0776 41.6433 37.9976 41.7933 37.9976 41.98C37.9976 42.1267 38.051 42.25 38.1576 42.35C38.2643 42.45 38.3943 42.53 38.5476 42.59C38.701 42.6433 38.9276 42.7133 39.2276 42.8C39.6276 42.9067 39.9543 43.0167 40.2076 43.13C40.4676 43.2367 40.691 43.3967 40.8776 43.61C41.0643 43.8233 41.161 44.1067 41.1676 44.46C41.1676 44.7733 41.081 45.0533 40.9076 45.3C40.7343 45.5467 40.4876 45.74 40.1676 45.88C39.8543 46.02 39.4843 46.09 39.0576 46.09Z" fill="white"/>
</svg>
