<svg width="26" height="25" viewBox="0 0 26 25" fill="none" xmlns="http://www.w3.org/2000/svg">
<path d="M23.1221 18.999L19.8809 3.58889C19.8389 3.38737 19.7576 3.19612 19.6416 3.02612C19.5255 2.85612 19.377 2.71073 19.2046 2.5983C19.0322 2.48586 18.8392 2.40861 18.6369 2.37096C18.4345 2.33331 18.2267 2.33602 18.0254 2.37893L13.4541 3.36135C13.0498 3.44989 12.6967 3.69449 12.4718 4.04196C12.2468 4.38943 12.1682 4.81166 12.2529 5.21682L15.4941 20.627C15.5664 20.9786 15.7574 21.2946 16.0352 21.5218C16.313 21.7491 16.6606 21.8738 17.0195 21.875C17.1305 21.8749 17.2411 21.8631 17.3496 21.8399L21.9209 20.8574C22.3257 20.7687 22.6791 20.5236 22.9041 20.1755C23.1291 19.8275 23.2074 19.4046 23.1221 18.999ZM13.7813 4.89749V4.8887L18.3516 3.91213L18.6768 5.46194L14.1064 6.44534L13.7813 4.89749ZM14.7578 9.52444L14.4307 7.9717L19.0029 6.98928L19.3291 8.54202L14.7578 9.52444ZM21.5938 19.3301L17.0234 20.3067L16.6982 18.7569L21.2686 17.7735L21.5938 19.3213V19.3301ZM10.6563 3.12502H5.96875C5.55435 3.12502 5.15692 3.28964 4.8639 3.58267C4.57087 3.8757 4.40625 4.27312 4.40625 4.68752V20.3125C4.40625 20.7269 4.57087 21.1244 4.8639 21.4174C5.15692 21.7104 5.55435 21.875 5.96875 21.875H10.6563C11.0707 21.875 11.4681 21.7104 11.7611 21.4174C12.0541 21.1244 12.2188 20.7269 12.2188 20.3125V4.68752C12.2188 4.27312 12.0541 3.8757 11.7611 3.58267C11.4681 3.28964 11.0707 3.12502 10.6563 3.12502ZM5.96875 4.68752H10.6563V6.25002H5.96875V4.68752ZM10.6563 20.3125H5.96875V18.75H10.6563V20.3125Z" fill="white"/>
</svg>
