<svg width="28" height="31" viewBox="0 0 28 31" fill="none" xmlns="http://www.w3.org/2000/svg">
<path d="M18.0834 6.37098C19.7219 6.37098 20.5412 6.37098 21.1297 6.79231C21.3845 6.97471 21.6032 7.20908 21.7735 7.48206C22.1667 8.11262 22.1667 8.99041 22.1667 10.746V22.621C22.1667 24.978 22.1667 26.1565 21.4833 26.8887C20.7999 27.621 19.6999 27.621 17.5 27.621H10.5C8.30015 27.621 7.20021 27.621 6.51679 26.8887C5.83337 26.1565 5.83337 24.978 5.83337 22.621V10.746C5.83337 8.99041 5.83337 8.11262 6.22661 7.48206C6.39685 7.20908 6.6156 6.97471 6.87038 6.79231C7.4589 6.37098 8.27817 6.37098 9.91671 6.37098" stroke="black" stroke-width="3"/>
<path d="M10.5 6.37098C10.5 4.99027 11.5447 3.87098 12.8333 3.87098H15.1667C16.4553 3.87098 17.5 4.99027 17.5 6.37098C17.5 7.75169 16.4553 8.87098 15.1667 8.87098H12.8333C11.5447 8.87098 10.5 7.75169 10.5 6.37098Z" stroke="black" stroke-width="3"/>
<path d="M10.5 15.121L17.5 15.121" stroke="black" stroke-width="3" stroke-linecap="round"/>
<path d="M10.5 20.121L15.1667 20.121" stroke="black" stroke-width="3" stroke-linecap="round"/>
</svg>
