<svg width="43" height="46" viewBox="0 0 43 46" fill="none" xmlns="http://www.w3.org/2000/svg">
<g clip-path="url(#clip0_1_328)">
<path d="M34 12.4875C34 5.59375 28.4 0 21.5 0C14.6 0 9 5.59375 9 12.4875C9 16.2844 10.725 19.7062 13.425 22.0031C13.45 22.0281 13.475 22.0281 13.475 22.0531C13.7 22.2281 13.925 22.4031 14.175 22.5781C14.3 22.6531 14.4 22.7516 14.525 22.8516C16.5907 24.2521 19.0292 25.0006 21.525 25C24.0208 25.0006 26.4593 24.2521 28.525 22.8516C28.65 22.7766 28.75 22.6781 28.875 22.6016C29.1 22.4281 29.35 22.2531 29.575 22.0781C29.6 22.0531 29.625 22.0531 29.625 22.0281C32.275 19.7047 34 16.2844 34 12.4875ZM21.5 23.4266C19.15 23.4266 17 22.6766 15.225 21.4281C15.25 21.2281 15.3 21.0297 15.35 20.8297C15.499 20.2877 15.7174 19.7672 16 19.2812C16.275 18.8062 16.6 18.3813 17 18.0063C17.375 17.6313 17.825 17.2828 18.275 17.0078C18.75 16.7328 19.25 16.5328 19.8 16.3828C20.3543 16.2334 20.9259 16.1583 21.5 16.1594C23.2041 16.1473 24.8457 16.801 26.075 17.9813C26.65 18.5563 27.1 19.2313 27.425 20.0047C27.6 20.4547 27.725 20.9297 27.8 21.4281C25.955 22.7252 23.7554 23.423 21.5 23.4266ZM17.675 11.8641C17.4547 11.3597 17.3439 10.8144 17.35 10.2641C17.35 9.71562 17.45 9.16562 17.675 8.66562C17.9 8.16562 18.2 7.71719 18.575 7.34219C18.95 6.96719 19.4 6.66875 19.9 6.44375C20.4 6.21875 20.95 6.11875 21.5 6.11875C22.075 6.11875 22.6 6.21875 23.1 6.44375C23.6 6.66875 24.05 6.96875 24.425 7.34219C24.8 7.71719 25.1 8.16719 25.325 8.66562C25.55 9.16562 25.65 9.71562 25.65 10.2641C25.65 10.8391 25.55 11.3641 25.325 11.8625C25.1079 12.3551 24.8029 12.8041 24.425 13.1875C24.0415 13.5648 23.5925 13.8693 23.1 14.0859C22.0669 14.5105 20.9081 14.5105 19.875 14.0859C19.3825 13.8693 18.9335 13.5648 18.55 13.1875C18.1716 12.8097 17.8739 12.3604 17.675 11.8641ZM29.275 20.1547C29.275 20.1047 29.25 20.0797 29.25 20.0297C29.0041 19.2475 28.6417 18.5069 28.175 17.8328C27.7078 17.1537 27.1337 16.5548 26.475 16.0594C25.9719 15.6809 25.4266 15.3621 24.85 15.1094C25.1123 14.9363 25.3554 14.7357 25.575 14.5109C25.9477 14.143 26.275 13.7317 26.55 13.2859C27.1037 12.3763 27.3896 11.3289 27.375 10.2641C27.3827 9.4758 27.2296 8.69425 26.925 7.96719C26.6243 7.26662 26.1914 6.63056 25.65 6.09375C25.1094 5.56255 24.4732 5.13842 23.775 4.84375C23.0467 4.53968 22.2642 4.3871 21.475 4.39531C20.6857 4.38759 19.9032 4.5407 19.175 4.84531C18.4707 5.13936 17.833 5.57248 17.3 6.11875C16.7688 6.65873 16.3447 7.2944 16.05 7.99219C15.7454 8.71925 15.5923 9.5008 15.6 10.2891C15.6 10.8391 15.675 11.3641 15.825 11.8625C15.975 12.3875 16.175 12.8625 16.45 13.3109C16.7 13.7609 17.05 14.1609 17.425 14.5359C17.65 14.7609 17.9 14.9594 18.175 15.1344C17.5966 15.3938 17.0511 15.7211 16.55 16.1094C15.9 16.6094 15.325 17.2078 14.85 17.8578C14.3785 18.5291 14.0157 19.2705 13.775 20.0547C13.75 20.1047 13.75 20.1547 13.75 20.1797C11.775 18.1812 10.55 15.4844 10.55 12.4875C10.55 6.46875 15.475 1.54844 21.5 1.54844C27.525 1.54844 32.45 6.46875 32.45 12.4875C32.4467 15.3624 31.3052 18.1191 29.275 20.1547Z" fill="white"/>
</g>
<path d="M5.41461 40.58H2.50461L2.00461 42H0.814609L3.30461 35.04H4.62461L7.11461 42H5.91461L5.41461 40.58ZM5.09461 39.65L3.96461 36.42L2.82461 39.65H5.09461ZM7.81727 39.24C7.81727 38.6733 7.9306 38.1767 8.15727 37.75C8.3906 37.3167 8.7106 36.9833 9.11727 36.75C9.52393 36.5167 9.9906 36.4 10.5173 36.4C11.1839 36.4 11.7339 36.56 12.1673 36.88C12.6073 37.1933 12.9039 37.6433 13.0573 38.23H11.8273C11.7273 37.9567 11.5673 37.7433 11.3473 37.59C11.1273 37.4367 10.8506 37.36 10.5173 37.36C10.0506 37.36 9.67727 37.5267 9.39727 37.86C9.12393 38.1867 8.98727 38.6467 8.98727 39.24C8.98727 39.8333 9.12393 40.2967 9.39727 40.63C9.67727 40.9633 10.0506 41.13 10.5173 41.13C11.1773 41.13 11.6139 40.84 11.8273 40.26H13.0573C12.8973 40.82 12.5973 41.2667 12.1573 41.6C11.7173 41.9267 11.1706 42.09 10.5173 42.09C9.9906 42.09 9.52393 41.9733 9.11727 41.74C8.7106 41.5 8.3906 41.1667 8.15727 40.74C7.9306 40.3067 7.81727 39.8067 7.81727 39.24ZM13.8134 39.24C13.8134 38.6733 13.9267 38.1767 14.1534 37.75C14.3867 37.3167 14.7067 36.9833 15.1134 36.75C15.52 36.5167 15.9867 36.4 16.5134 36.4C17.18 36.4 17.73 36.56 18.1634 36.88C18.6034 37.1933 18.9 37.6433 19.0534 38.23H17.8234C17.7234 37.9567 17.5634 37.7433 17.3434 37.59C17.1234 37.4367 16.8467 37.36 16.5134 37.36C16.0467 37.36 15.6734 37.5267 15.3934 37.86C15.12 38.1867 14.9834 38.6467 14.9834 39.24C14.9834 39.8333 15.12 40.2967 15.3934 40.63C15.6734 40.9633 16.0467 41.13 16.5134 41.13C17.1734 41.13 17.61 40.84 17.8234 40.26H19.0534C18.8934 40.82 18.5934 41.2667 18.1534 41.6C17.7134 41.9267 17.1667 42.09 16.5134 42.09C15.9867 42.09 15.52 41.9733 15.1134 41.74C14.7067 41.5 14.3867 41.1667 14.1534 40.74C13.9267 40.3067 13.8134 39.8067 13.8134 39.24ZM22.5795 42.09C22.0595 42.09 21.5895 41.9733 21.1695 41.74C20.7495 41.5 20.4195 41.1667 20.1795 40.74C19.9395 40.3067 19.8195 39.8067 19.8195 39.24C19.8195 38.68 19.9428 38.1833 20.1895 37.75C20.4361 37.3167 20.7728 36.9833 21.1995 36.75C21.6261 36.5167 22.1028 36.4 22.6295 36.4C23.1561 36.4 23.6328 36.5167 24.0595 36.75C24.4861 36.9833 24.8228 37.3167 25.0695 37.75C25.3161 38.1833 25.4395 38.68 25.4395 39.24C25.4395 39.8 25.3128 40.2967 25.0595 40.73C24.8061 41.1633 24.4595 41.5 24.0195 41.74C23.5861 41.9733 23.1061 42.09 22.5795 42.09ZM22.5795 41.1C22.8728 41.1 23.1461 41.03 23.3995 40.89C23.6595 40.75 23.8695 40.54 24.0295 40.26C24.1895 39.98 24.2695 39.64 24.2695 39.24C24.2695 38.84 24.1928 38.5033 24.0395 38.23C23.8861 37.95 23.6828 37.74 23.4295 37.6C23.1761 37.46 22.9028 37.39 22.6095 37.39C22.3161 37.39 22.0428 37.46 21.7895 37.6C21.5428 37.74 21.3461 37.95 21.1995 38.23C21.0528 38.5033 20.9795 38.84 20.9795 39.24C20.9795 39.8333 21.1295 40.2933 21.4295 40.62C21.7361 40.94 22.1195 41.1 22.5795 41.1ZM31.5564 36.49V42H30.4164V41.35C30.2364 41.5767 29.9997 41.7567 29.7064 41.89C29.4197 42.0167 29.1131 42.08 28.7864 42.08C28.3531 42.08 27.9631 41.99 27.6164 41.81C27.2764 41.63 27.0064 41.3633 26.8064 41.01C26.6131 40.6567 26.5164 40.23 26.5164 39.73V36.49H27.6464V39.56C27.6464 40.0533 27.7697 40.4333 28.0164 40.7C28.2631 40.96 28.5997 41.09 29.0264 41.09C29.4531 41.09 29.7897 40.96 30.0364 40.7C30.2897 40.4333 30.4164 40.0533 30.4164 39.56V36.49H31.5564ZM35.8405 36.4C36.2739 36.4 36.6605 36.49 37.0005 36.67C37.3472 36.85 37.6172 37.1167 37.8105 37.47C38.0039 37.8233 38.1005 38.25 38.1005 38.75V42H36.9705V38.92C36.9705 38.4267 36.8472 38.05 36.6005 37.79C36.3539 37.5233 36.0172 37.39 35.5905 37.39C35.1639 37.39 34.8239 37.5233 34.5705 37.79C34.3239 38.05 34.2005 38.4267 34.2005 38.92V42H33.0605V36.49H34.2005V37.12C34.3872 36.8933 34.6239 36.7167 34.9105 36.59C35.2039 36.4633 35.5139 36.4 35.8405 36.4ZM40.8847 37.42V40.47C40.8847 40.6767 40.9314 40.8267 41.0247 40.92C41.1247 41.0067 41.2914 41.05 41.5247 41.05H42.2247V42H41.3247C40.8114 42 40.418 41.88 40.1447 41.64C39.8714 41.4 39.7347 41.01 39.7347 40.47V37.42H39.0847V36.49H39.7347V35.12H40.8847V36.49H42.2247V37.42H40.8847Z" fill="white"/>
<defs>
<clipPath id="clip0_1_328">
<rect width="25" height="25" fill="white" transform="translate(9)"/>
</clipPath>
</defs>
</svg>
