<svg width="30" height="52" viewBox="0 0 30 52" fill="none" xmlns="http://www.w3.org/2000/svg">
<path d="M13.2906 6.03751C13.7754 5.64915 14.3781 5.43753 14.9992 5.43753C15.6204 5.43753 16.223 5.64915 16.7078 6.03751L24.9109 12.6C25.5594 13.1188 25.9375 13.9047 25.9375 14.7359V25.7031C25.9375 26.4283 25.6494 27.1238 25.1366 27.6366C24.6238 28.1494 23.9283 28.4375 23.2031 28.4375H17.7344C17.4236 28.4375 17.1255 28.314 16.9057 28.0943C16.686 27.8745 16.5625 27.5764 16.5625 27.2656V19.0625H13.4375V27.2656C13.4375 27.5764 13.314 27.8745 13.0943 28.0943C12.8745 28.314 12.5764 28.4375 12.2656 28.4375H6.79688C6.07167 28.4375 5.37617 28.1494 4.86338 27.6366C4.35059 27.1238 4.0625 26.4283 4.0625 25.7031V14.7344C4.0625 13.9047 4.44062 13.1188 5.08906 12.6L13.2906 6.03751ZM15.2438 7.8672C15.1745 7.81192 15.0886 7.78182 15 7.78182C14.9114 7.78182 14.8255 7.81192 14.7562 7.8672L6.55313 14.4297C6.50717 14.4664 6.47009 14.513 6.44466 14.566C6.41923 14.6191 6.4061 14.6771 6.40625 14.7359V25.7031C6.40625 25.9188 6.58125 26.0938 6.79688 26.0938H11.0938V17.8906C11.0938 17.5798 11.2172 17.2818 11.437 17.062C11.6568 16.8422 11.9548 16.7188 12.2656 16.7188H17.7344C18.0452 16.7188 18.3432 16.8422 18.563 17.062C18.7828 17.2818 18.9062 17.5798 18.9062 17.8906V26.0938H23.2031C23.3067 26.0938 23.4061 26.0526 23.4793 25.9794C23.5526 25.9061 23.5938 25.8067 23.5938 25.7031V14.7344C23.5937 14.6758 23.5804 14.6181 23.555 14.5653C23.5296 14.5126 23.4926 14.4662 23.4469 14.4297L15.2438 7.8672Z" fill="white"/>
<path d="M6.30488 36.05V43H5.16488V39.96H1.89488V43H0.754883V36.05H1.89488V39.03H5.16488V36.05H6.30488ZM10.1957 43.09C9.67566 43.09 9.20566 42.9733 8.78566 42.74C8.36566 42.5 8.03566 42.1667 7.79566 41.74C7.55566 41.3067 7.43566 40.8067 7.43566 40.24C7.43566 39.68 7.559 39.1833 7.80566 38.75C8.05233 38.3167 8.389 37.9833 8.81566 37.75C9.24233 37.5167 9.719 37.4 10.2457 37.4C10.7723 37.4 11.249 37.5167 11.6757 37.75C12.1023 37.9833 12.439 38.3167 12.6857 38.75C12.9323 39.1833 13.0557 39.68 13.0557 40.24C13.0557 40.8 12.929 41.2967 12.6757 41.73C12.4223 42.1633 12.0757 42.5 11.6357 42.74C11.2023 42.9733 10.7223 43.09 10.1957 43.09ZM10.1957 42.1C10.489 42.1 10.7623 42.03 11.0157 41.89C11.2757 41.75 11.4857 41.54 11.6457 41.26C11.8057 40.98 11.8857 40.64 11.8857 40.24C11.8857 39.84 11.809 39.5033 11.6557 39.23C11.5023 38.95 11.299 38.74 11.0457 38.6C10.7923 38.46 10.519 38.39 10.2257 38.39C9.93233 38.39 9.659 38.46 9.40566 38.6C9.159 38.74 8.96233 38.95 8.81566 39.23C8.669 39.5033 8.59566 39.84 8.59566 40.24C8.59566 40.8333 8.74566 41.2933 9.04566 41.62C9.35233 41.94 9.73566 42.1 10.1957 42.1ZM20.8526 37.4C21.286 37.4 21.6726 37.49 22.0126 37.67C22.3593 37.85 22.6293 38.1167 22.8226 38.47C23.0226 38.8233 23.1226 39.25 23.1226 39.75V43H21.9926V39.92C21.9926 39.4267 21.8693 39.05 21.6226 38.79C21.376 38.5233 21.0393 38.39 20.6126 38.39C20.186 38.39 19.846 38.5233 19.5926 38.79C19.346 39.05 19.2226 39.4267 19.2226 39.92V43H18.0926V39.92C18.0926 39.4267 17.9693 39.05 17.7226 38.79C17.476 38.5233 17.1393 38.39 16.7126 38.39C16.286 38.39 15.946 38.5233 15.6926 38.79C15.446 39.05 15.3226 39.4267 15.3226 39.92V43H14.1826V37.49H15.3226V38.12C15.5093 37.8933 15.746 37.7167 16.0326 37.59C16.3193 37.4633 16.626 37.4 16.9526 37.4C17.3926 37.4 17.786 37.4933 18.1326 37.68C18.4793 37.8667 18.746 38.1367 18.9326 38.49C19.0993 38.1567 19.3593 37.8933 19.7126 37.7C20.066 37.5 20.446 37.4 20.8526 37.4ZM29.6232 40.11C29.6232 40.3167 29.6099 40.5033 29.5832 40.67H25.3732C25.4066 41.11 25.5699 41.4633 25.8632 41.73C26.1566 41.9967 26.5166 42.13 26.9432 42.13C27.5566 42.13 27.9899 41.8733 28.2432 41.36H29.4732C29.3066 41.8667 29.0032 42.2833 28.5632 42.61C28.1299 42.93 27.5899 43.09 26.9432 43.09C26.4166 43.09 25.9432 42.9733 25.5232 42.74C25.1099 42.5 24.7832 42.1667 24.5432 41.74C24.3099 41.3067 24.1932 40.8067 24.1932 40.24C24.1932 39.6733 24.3066 39.1767 24.5332 38.75C24.7666 38.3167 25.0899 37.9833 25.5032 37.75C25.9232 37.5167 26.4032 37.4 26.9432 37.4C27.4632 37.4 27.9266 37.5133 28.3332 37.74C28.7399 37.9667 29.0566 38.2867 29.2832 38.7C29.5099 39.1067 29.6232 39.5767 29.6232 40.11ZM28.4332 39.75C28.4266 39.33 28.2766 38.9933 27.9832 38.74C27.6899 38.4867 27.3266 38.36 26.8932 38.36C26.4999 38.36 26.1632 38.4867 25.8832 38.74C25.6032 38.9867 25.4366 39.3233 25.3832 39.75H28.4332Z" fill="white"/>
</svg>
