<svg width="41" height="41" viewBox="0 0 41 41" fill="none" xmlns="http://www.w3.org/2000/svg">
<path d="M20.6758 10.3614L18.8883 12.1026L25.8633 19.1114H10.6758V21.6114H25.8633L18.8883 28.5776L20.6758 30.3614L30.6758 20.3614L20.6758 10.3614Z" fill="#009688"/>
<path d="M20.6758 37.8614C17.2146 37.8614 13.8312 36.835 10.9533 34.9121C8.07545 32.9892 5.83243 30.256 4.5079 27.0583C3.18336 23.8606 2.83681 20.342 3.51205 16.9473C4.18729 13.5526 5.854 10.4344 8.30142 7.987C10.7488 5.53958 13.867 3.87287 17.2617 3.19762C20.6564 2.52238 24.175 2.86894 27.3727 4.19347C30.5705 5.51801 33.3036 7.76103 35.2265 10.6389C37.1494 13.5167 38.1758 16.9002 38.1758 20.3614C38.1705 25.001 36.3251 29.4491 33.0443 32.7299C29.7636 36.0106 25.3155 37.8561 20.6758 37.8614ZM20.6758 5.36137C17.7091 5.36137 14.809 6.2411 12.3422 7.88932C9.8755 9.53754 7.95291 11.8802 6.8176 14.6211C5.68228 17.362 5.38523 20.378 5.96401 23.2877C6.54279 26.1974 7.9714 28.8702 10.0692 30.968C12.167 33.0658 14.8397 34.4944 17.7494 35.0731C20.6592 35.6519 23.6751 35.3549 26.416 34.2196C29.1569 33.0842 31.4996 31.1617 33.1478 28.6949C34.7961 26.2282 35.6758 23.3281 35.6758 20.3614C35.6712 16.3845 34.0893 12.5719 31.2773 9.75988C28.4652 6.94784 24.6526 5.366 20.6758 5.36137Z" fill="#009688"/>
</svg>
