<svg width="41" height="41" viewBox="0 0 41 41" fill="none" xmlns="http://www.w3.org/2000/svg">
<path d="M20.6758 10.0841L18.8883 11.8254L25.8633 18.8341H10.6758V21.3341H25.8633L18.8883 28.3004L20.6758 30.0841L30.6758 20.0841L20.6758 10.0841Z" fill="#009688"/>
<path d="M20.6758 37.5841C17.2146 37.5841 13.8312 36.5578 10.9533 34.6348C8.07545 32.7119 5.83243 29.9788 4.5079 26.7811C3.18336 23.5834 2.83681 20.0647 3.51205 16.67C4.18729 13.2754 5.854 10.1572 8.30142 7.70975C10.7488 5.26233 13.867 3.59561 17.2617 2.92037C20.6564 2.24513 24.175 2.59169 27.3727 3.91622C30.5705 5.24076 33.3036 7.48377 35.2265 10.3616C37.1494 13.2395 38.1758 16.6229 38.1758 20.0841C38.1705 24.7238 36.3251 29.1719 33.0443 32.4526C29.7636 35.7334 25.3155 37.5788 20.6758 37.5841ZM20.6758 5.08411C17.7091 5.08411 14.809 5.96385 12.3422 7.61207C9.8755 9.26029 7.95291 11.603 6.8176 14.3439C5.68228 17.0848 5.38523 20.1008 5.96401 23.0105C6.54279 25.9202 7.9714 28.5929 10.0692 30.6907C12.167 32.7885 14.8397 34.2171 17.7494 34.7959C20.6592 35.3747 23.6751 35.0776 26.416 33.9423C29.1569 32.807 31.4996 30.8844 33.1478 28.4177C34.7961 25.9509 35.6758 23.0508 35.6758 20.0841C35.6712 16.1073 34.0893 12.2947 31.2773 9.48263C28.4652 6.67059 24.6526 5.08875 20.6758 5.08411Z" fill="#009688"/>
</svg>
