<svg width="41" height="41" viewBox="0 0 41 41" fill="none" xmlns="http://www.w3.org/2000/svg">
<path fill-rule="evenodd" clip-rule="evenodd" d="M25.3557 31.9777C25.356 32.8187 25.0384 33.6287 24.4665 34.2453C23.8947 34.8619 23.111 35.2396 22.2724 35.3027L22.0224 35.311H18.689C17.8481 35.3113 17.0381 34.9937 16.4215 34.4219C15.8048 33.8501 15.4271 33.0663 15.364 32.2277L15.3557 31.9777H25.3557ZM20.3557 3.64438C23.3807 3.64433 26.2874 4.8192 28.4628 6.92117C30.6381 9.02314 31.912 11.8879 32.0157 14.911L32.0224 15.311V21.5844L35.059 27.6577C35.1916 27.9227 35.2579 28.2159 35.2523 28.5121C35.2468 28.8084 35.1695 29.0988 35.0271 29.3587C34.8848 29.6185 34.6815 29.84 34.4348 30.0041C34.1882 30.1682 33.9054 30.2701 33.6107 30.301L33.419 30.311H7.29237C6.99598 30.3111 6.70398 30.2394 6.44141 30.1019C6.17883 29.9644 5.9535 29.7653 5.78473 29.5216C5.61596 29.278 5.50878 28.997 5.47238 28.7029C5.43597 28.4087 5.47143 28.1102 5.5757 27.8327L5.65237 27.6577L8.68904 21.5844V15.311C8.68904 12.2169 9.9182 9.24939 12.1061 7.06147C14.294 4.87354 17.2615 3.64438 20.3557 3.64438ZM20.3557 6.97771C18.2083 6.97784 16.1438 7.80695 14.5927 9.29215C13.0417 10.7773 12.1239 12.804 12.0307 14.9494L12.0224 15.311V21.5844C12.0224 21.9977 11.9455 22.4075 11.7957 22.7927L11.6707 23.076L9.7207 26.9777H30.9924L29.0424 23.0744C28.8574 22.7048 28.7427 22.3042 28.704 21.8927L28.689 21.5844V15.311C28.689 13.1009 27.8111 10.9813 26.2483 9.41849C24.6855 7.85569 22.5658 6.97771 20.3557 6.97771Z" fill="#0D1B2A"/>
<circle cx="30.196" cy="15.0566" r="6.98779" fill="#FF4747"/>
<path d="M29.6067 15.8269H27.8667V17.6069H26.2467V15.8269H24.5067V14.2969H26.2467V12.5069H27.8667V14.2969H29.6067V15.8269ZM35.886 15.8269H34.146V17.6069H32.526V15.8269H30.786V14.2969H32.526V12.5069H34.146V14.2969H35.886V15.8269Z" fill="white"/>
</svg>
