<svg width="17" height="15" viewBox="0 0 17 15" fill="none" xmlns="http://www.w3.org/2000/svg">
<path d="M11.1457 1.24994C13.3399 1.24994 14.8091 2.73744 14.8091 4.94994V10.0568C14.8091 12.2624 13.3399 13.7499 11.1457 13.7499H5.53404C3.33986 13.7499 1.86414 12.2624 1.86414 10.0568V4.94994C1.86414 2.73744 3.33986 1.24994 5.53404 1.24994H11.1457ZM11.0421 5.62494C10.8221 5.41244 10.4596 5.41244 10.2395 5.62494L7.5664 8.20619L6.43371 7.11244C6.21365 6.89994 5.85119 6.89994 5.63113 7.11244C5.41106 7.32494 5.41106 7.66869 5.63113 7.88744L7.17158 9.36869C7.28161 9.47494 7.42401 9.52494 7.5664 9.52494C7.71527 9.52494 7.85766 9.47494 7.9677 9.36869L11.0421 6.39994C11.2622 6.18744 11.2622 5.84369 11.0421 5.62494Z" fill="#00D53B"/>
</svg>
