<svg width="22" height="24" viewBox="0 0 22 24" fill="none" xmlns="http://www.w3.org/2000/svg">
<path d="M9.29063 1.03751C9.77542 0.649148 10.3781 0.437531 10.9992 0.437531C11.6204 0.437531 12.223 0.649148 12.7078 1.03751L20.9109 7.60001C21.5594 8.11876 21.9375 8.9047 21.9375 9.73595V20.7031C21.9375 21.4283 21.6494 22.1238 21.1366 22.6366C20.6238 23.1494 19.9283 23.4375 19.2031 23.4375H13.7344C13.4236 23.4375 13.1255 23.314 12.9057 23.0943C12.686 22.8745 12.5625 22.5764 12.5625 22.2656V14.0625H9.4375V22.2656C9.4375 22.5764 9.31404 22.8745 9.09427 23.0943C8.8745 23.314 8.57643 23.4375 8.26562 23.4375H2.79688C2.07167 23.4375 1.37617 23.1494 0.86338 22.6366C0.350585 22.1238 0.0625 21.4283 0.0625 20.7031V9.73439C0.0625 8.9047 0.440625 8.11876 1.08906 7.60001L9.29063 1.03751ZM11.2438 2.8672C11.1745 2.81192 11.0886 2.78182 11 2.78182C10.9114 2.78182 10.8255 2.81192 10.7562 2.8672L2.55313 9.4297C2.50717 9.4664 2.47009 9.513 2.44466 9.56602C2.41923 9.61905 2.4061 9.67714 2.40625 9.73595V20.7031C2.40625 20.9188 2.58125 21.0938 2.79688 21.0938H7.09375V12.8906C7.09375 12.5798 7.21722 12.2818 7.43698 12.062C7.65675 11.8422 7.95482 11.7188 8.26562 11.7188H13.7344C14.0452 11.7188 14.3432 11.8422 14.563 12.062C14.7828 12.2818 14.9062 12.5798 14.9062 12.8906V21.0938H19.2031C19.3067 21.0938 19.4061 21.0526 19.4793 20.9794C19.5526 20.9061 19.5938 20.8067 19.5938 20.7031V9.73439C19.5937 9.67584 19.5804 9.61806 19.555 9.56532C19.5296 9.51258 19.4926 9.46623 19.4469 9.4297L11.2438 2.8672Z" fill="white"/>
</svg>
